<?xml version="1.0" encoding="utf-8"?>
<!-- Generator: Adobe Illustrator 27.1.0, SVG Export Plug-In . SVG Version: 6.00 Build 0)  -->
<svg version="1.1" id="레이어_1" xmlns="http://www.w3.org/2000/svg" xmlns:xlink="http://www.w3.org/1999/xlink" x="0px"
	 y="0px" viewBox="0 0 53 53" style="enable-background:new 0 0 53 53;" xml:space="preserve">
<style type="text/css">
	.st0{fill:#FFFFFF;}
</style>
<g>
	<g>
		<path class="st0" d="M10,1h33c5,0,9,4,9,9v33c0,5-4,9-9,9H10c-5,0-9-4-9-9V10C1,5,5,1,10,1z"/>
		<path d="M43,53H10C4.5,53,0,48.5,0,43V10C0,4.5,4.5,0,10,0h33c5.5,0,10,4.5,10,10v33C53,48.5,48.5,53,43,53z M10,2
			c-4.4,0-8,3.6-8,8v33c0,4.4,3.6,8,8,8h33c4.4,0,8-3.6,8-8V10c0-4.4-3.6-8-8-8H10z"/>
	</g>
	<g>
		<path d="M4.3,26.6c0-4.8,3.2-7.5,6.9-7.5c1.9,0,3.4,0.9,4.4,1.9l-1.8,2.2C13,22.5,12.3,22,11.2,22c-1.9,0-3.4,1.7-3.4,4.5
			c0,2.9,1.3,4.5,3.3,4.5c1.2,0,2.1-0.6,2.7-1.3l1.8,2.2c-1.2,1.4-2.8,2.1-4.7,2.1C7.4,34,4.3,31.4,4.3,26.6z"/>
		<path d="M16.4,26.6c0-4.8,3.2-7.5,6.9-7.5c1.9,0,3.4,0.9,4.4,1.9l-1.8,2.2c-0.7-0.7-1.5-1.1-2.5-1.1c-1.9,0-3.4,1.7-3.4,4.5
			c0,2.9,1.3,4.5,3.3,4.5c1.2,0,2.1-0.6,2.7-1.3l1.8,2.2C26.6,33.2,25,34,23.1,34C19.5,34,16.4,31.4,16.4,26.6z"/>
		<path d="M29.9,19.3h3.5v5.5h4.7v-5.5h3.4v14.4h-3.4v-5.9h-4.7v5.9h-3.5V19.3z"/>
		<path d="M44.6,31.8c0-1.2,0.8-2.1,2-2.1c1.2,0,2,0.9,2,2.1c0,1.2-0.9,2.1-2,2.1C45.4,34,44.6,33,44.6,31.8z"/>
	</g>
</g>
</svg>
